<svg width="288" height="243" xmlns="http://www.w3.org/2000/svg"><g fill="none" fill-rule="evenodd"><path d="M74.2782172 238.781358c-6.09971-1.235431-79.38961995-12.362854-73.99460972-94.432041C5.678333 62.2798452 12.449999 37.5988408 40.9440696 28.5692883c28.4937858-9.0295524 97.7576534-51.7571337 152.1092214-11.1302694 14.108515 10.5460093 28.485244 20.750346 42.219059 31.7886486 18.870862 15.1677005 38.275587 32.685539 47.55029 55.6368255 4.358603 10.786319 6.003187 22.423403 4.789395 33.995569-1.420219 13.543332-3.419288 26.717943-7.05981 39.915331-1.239417 4.491856-2.478265 8.984281-3.717682 13.476137-.744277 2.69779-1.493394 5.408962-2.663623 7.951006-7.538436 16.374374-17.044053 27.11713-32.974822 35.83576-13.82208 7.564347-30.953828 7.365892-46.223746 6.53335-60.723477-3.310808-91.688979 2.084202-120.6941348-3.790288" fill="#F5F5F5"/><path d="M10.1991842 212.374646c-4.20947755-.655994-5.75648151-1.445174-3.73137479-2.392066 14.08292059-6.584779 77.23719149-6.675432 107.87209159-6.808618 38.533221-.167026 78.628347-.522809 113.322153.905601 14.518802.597939 48.031322-.116421 53.047055 3.23837 15.517539 10.379177-90.247796 7.80301-107.241555 7.95979-28.329142.261094-139.2260098.845062-163.2683698-2.903077" fill="#E4E4E4"/><path d="M256.354119 195.952178V66.0643852c0-2.3513963-.183712-4.2752943-.408246-4.2752943h-20.424899c-.224534 0-.408247 1.923898-.408247 4.2752943V195.952178h21.241392zM55.2777555 195.952178V66.0643852c0-2.3513963-.1837124-4.2752943-.4082466-4.2752943H34.4446102c-.2245341 0-.4082466 1.923898-.4082466 4.2752943V195.952178h21.2413919z" fill="#FFF"/><path d="M235.484964 194.967692V57.4148639c0-2.4901587-1.570192-4.5275912-3.489288-4.5275912H57.4238336c-1.9190958 0-3.4892881 2.0374325-3.4892881 4.5275912V194.967692H235.484964z" fill="#FFF"/><path d="M120.7296525 137.8536089c-.5828073.6498327 1.8594327.3890618 2.30976-.1136291 9.4610618-10.5476073 28.4559709-10.8178036 38.6113745-1.0755491.5225891.5005964 2.8590545-.4351418 2.3725964-.9017018-11.2995491-10.8392727-32.9550546-9.4354036-43.2937309 2.09088m42.3454254-31.07624726c-1.6887273 0-3.0580364 1.36930909-3.0580364 3.05803636s1.3693091 3.05803636 3.0580364 3.05803636c1.6892509 0 3.0580364-1.36930909 3.0580364-3.05803636s-1.3687855-3.05803636-3.0580364-3.05803636m-41.4285382 7.75348363c-1.6892509 0-3.0580363-1.36878545-3.0580363-3.05803636 0-1.68872727 1.3687854-3.05803636 3.0580363-3.05803636s3.0580364 1.36930909 3.0580364 3.05803636c0 1.68925091-1.3687855 3.05803636-3.0580364 3.05803636" fill="#9DA5AA"/><path d="M172.4387434 118.4930969c-2.2553019 0-4.08384 2.5176436-4.08384 5.6228073 0 3.1051636 1.8285381 5.6228073 4.08384 5.6228073 2.2553018 0 4.0833163-2.5176437 4.0833163-5.6228073 0-3.1051637-1.8280145-5.6228073-4.0833163-5.6228073m-55.87933095 7.11936c0 3.1056873-1.82801454 5.6228073-4.08331636 5.6228073-2.25477818 0-4.08384-2.51712-4.08384-5.6228073 0-3.1051636 1.82906182-5.6228073 4.08384-5.6228073 2.25530182 0 4.08331636 2.5176437 4.08331636 5.6228073" fill="#F7F8F9"/><path d="M53.6803335 61.6552014c-5.0300137 0-10.0969717-.1921724-15.1229494 0-2.7903816.106797-5.0728566 2.0794366-5.180585 4.9371872-.0229737.6066317 0 1.2188516 0 1.8257938V189.464489c0 2.160155-.248365 4.489199 0 6.63942.0111765.095931 0 .199623 0 .297106 0 .381551.3682013.450472.6820726.450472H247.466872c2.876999 0 5.794357.140948 8.668872 0 .122941-.005588.246813 0 .369754 0 .274754 0 .832333-.244018.832333-.582416V70.2675708c0-1.6879511.328152-3.9766353-.307352-5.5906978-1.193704-3.0306748-4.166634-3.0216716-6.883748-3.0216716H238.091401c-.832023 0-1.171663 1.0331987-.150261 1.0331987h7.144532c2.386788 0 4.869818-.2002443 7.249466.0096242 3.854626.3402601 3.488287 4.1483176 3.488287 6.8825066V193.876695c0 .649164-.184721 1.616236 0 2.243978.022974.078235 0 .196519 0 .280342.277548-.194035.555096-.388381.832644-.582726H37.5524369c-.9437872 0-2.0396981-.154918-2.9735508 0-.1164211.019248-.2505383 0-.3697535 0 .227254.150261.4548185.300521.6820726.450782V70.9862773c0-1.5286871-.0645749-3.0732074 0-4.6012735.0891009-2.1129659 1.4665957-3.6093654 3.6065713-3.6966037 1.0186073-.0416011 2.0474596 0 3.0669982 0H53.5300726c.832023 0 1.1716622-1.0331987.1502609-1.0331987" fill="#BBC3C8"/><path d="M267.749078 210.02592H22.9499056c-6.6999583 0-12.1509508-5.450993-12.1509508-12.150951v-.729262c0-.393348.3191491-.712497.7128078-.712497H279.203364c.393349 0 .712187.319149.712187.712497v.713429c0 6.708961-5.457822 12.166784-12.166473 12.166784" fill="#FFF"/><path d="M260.516966 209.512922H24.9613212c-1.4759095 0-2.9064923.023905-4.3631535-.347712-4.5025483-1.148998-7.9408523-5.067268-8.6701142-9.625388-.0568135-.35392.0667481-2.344566-.1546073-2.541396-.0192483-.017075-.7469579.010246-.6212231-.052467 3.413157-.148398 6.627001 0 9.7998649 0h254.84585c.677726 0 2.227834-.304247 2.852783 0 .95217.464133.017075 3.772045-.240293 4.611208-1.397054 4.55098-5.519151 7.871-10.320359 7.955755-.677726.011797-.105038.765498 1.20012.742213 4.103302-.072646 6.150724-1.49507 8.777185-4.703326 1.335272-1.631137 2.25919-3.614333 2.631428-5.689423.213594-1.188116.778314-3.638238-.890079-3.92572-.64668-.111765-1.378736-.016454-2.028832-.016454H15.2915375c-1.0468588 0-2.1042731-.044085-3.1498901 0-.8074969.033839-1.8360388.186584-2.21665825 1.00029-.25736831.550439-.10959109 1.512854-.06985268 2.082231.07761409 1.118574.31511323 2.229076.69883723 3.282765.7112555 1.951529 1.9297966 3.733237 3.4923234 5.101108 4.0222724 3.521817 8.8703586 3.152063 13.7578728 3.152063H267.945953c.682073 0-.107239-1.025747-1.41395-1.025747h-6.015037z" fill="#BBC3C8"/><path d="M113.675711 196.637769c.897219 4.1567 4.838152 3.848107 8.101358 3.848107h45.821494c3.622404 0 8.43603.510079 9.440667-4.142419.053709-.250539-.277238-.33312-.458544-.33312H114.716982c-.565962 0-1.5914.853134-.582727.853134h61.863704c-.152744-.110833-.305489-.221666-.458234-.332809-.465374 2.156119-2.046838 3.10208-4.060768 3.10208H124.223776c-3.284007 0-8.122469.894735-9.048561-3.396703-.111454-.5166-1.616546-.140637-1.499504.40173" fill="#BBC3C8"/><path d="M235.339454 55.8825141H55.3284841V45.6206902c0-1.4333769 1.1620381-2.595415 2.5951045-2.595415H232.552487c1.539243 0 2.786967 1.247724 2.786967 2.7869666v10.0702723z" fill="#FFF"/><path d="M65.6051789 51.9208739c-1.2082961-.2468128-2.0247963-1.4119555-2.0210708-2.6072124.0043464-1.3566942 1.0924959-2.677065 2.5531929-2.2849587 1.1750773.3151132 1.7941272 1.4032627 1.8819864 2.5417061-.0832023 1.2663514-.9478232 2.6500553-2.4141085 2.350465m3.9204427-2.6677514c-.2443292-4.5407344-7.4661646-4.0272396-7.4621287.3411915.0043464 4.5919598 7.2333223 4.0992656 7.4661646-.2201135.0015523-.0298038-.003415-.0555717-.007451-.0819605.000621-.0130391.0043464-.0257678.0034151-.0391175M73.9372993 51.7650248c-.8866633-.5100798-1.4339978-1.4936055-1.4308933-2.5119023.004036-1.4339978 1.2691456-2.9089759 2.7956594-2.2169687 1.0598979.4805864 1.6047488 1.4880172 1.6659087 2.6186992-.0822709 1.5274452-1.3861875 3.0561323-3.0306748 2.1101718m-2.9303974-2.1101718c.0248365 4.5155875 7.2379792 3.7310644 7.4602659-.4017305-.2402932-4.4640517-7.4835501-3.786636-7.4602659.4017305M83.612547 51.8691829c-1.2172993-.1232512-2.1390442-1.2784592-2.154567-2.4712325-.0158333-1.1918419.8242616-2.3147625 2.0583256-2.3569845 1.3557628-.0465685 2.3153834 1.2138843 2.3830629 2.4693697-.0670586 1.240894-.8779706 2.5013468-2.2868215 2.3588473m3.8061948-2.4712325c.0031046-.0555717-.0037255-.1049342-.0155228-.1505713-.3980051-4.4708818-7.409972-4.2293468-7.4649228.2629565-.056503 4.6410119 7.0929961 4.373709 7.467096.0149019.010245-.0406698.0158332-.0828918.0133496-.1272871" fill="#9DA5AA"/><path d="M56.1370055 177.87176V45.7188772c0-1.4045045-.0866173-3.004286 1.8748459-3.160756 1.0006008-.0797873 2.0412504 0 3.0443349 0H222.457161c3.281213 0 6.751494-.3247374 10.021841 0 1.911169.1899992 2.145564 1.6773956 2.145564 3.1654128v143.478433c0 .816811 1.523409.621224 1.523409-.096862V59.0343497c0-4.6143126.035392-9.230488 0-13.8448006-.016454-2.1374919-1.200535-3.7351002-3.503189-3.7912928-1.016434-.0248365-2.037215 0-3.053649 0H67.1284019c-3.015152 0-6.0746993-.1515027-9.0873676 0-2.4373928.1223198-3.4277485 1.9648782-3.4277485 4.0911936V190.133336c0 .816811 1.5237197.621224 1.5237197-.096862V177.87176zM233.231859 54.4194162c1.007741 0-.036324.8317125-.588315.8317125-7.384515.2542638-14.536498 0-21.635703 0H57.4427849c-1.0077413 0 .0360129-.8317125.5883148-.8317125 7.3842041-.2542638 14.5364973 0 21.6357025 0H233.231859z" fill="#9DA5AA"/><path d="M54.0497765 72.0597421h-9.2823342c-.2412245 0-1.0397183.1418786-1.0397183.5252922V185.434052c0 1.431204-.2924498 3.218811 0 4.628283.0133497.064264 0 .144052 0 .210179 0 .252711.2306691.342744.4610277.342744H221.055109c8.173384 0 16.389922.245881 24.560512 0 .110522-.003105.221355 0 .331877 0 .240915 0 1.039408-.141568 1.039408-.525292V77.2412585c0-1.4312037.292761-3.2188114 0-4.6285936-.013349-.063954 0-.1437413 0-.2101789 0-.2527115-.230358-.3427439-.461027-.3427439h-8.53072c-.575586 0-1.587984.868036-.57869.868036h8.531029c-.153676-.114248-.307351-.2284959-.461338-.3427438V188.485527c0 .417875-.151813 1.181597 0 1.576808.02049.053399 0 .150882 0 .210179.34678-.174787.693249-.350195 1.039719-.524982H47.8214014c-.8180525 0-1.923898-.198381-2.7223917 0-.0977937.024216-.2294272 0-.3315674 0 .1536759.114248.3073518.228186.4610277.342434V74.1894727c0-.4178743.1518131-1.1812864 0-1.5768078-.0204901-.0533985 0-.1508818 0-.2101789-.3464693.1750973-.6929386.3501947-1.0397183.5252921h9.2826446c.5752756 0 1.5873633-.868036.5783802-.868036" fill="#BBC3C8"/></g></svg>