<svg width="288" height="253" xmlns="http://www.w3.org/2000/svg"><g fill="none" fill-rule="evenodd"><path d="M74.2782172 248.018548c-6.09971-1.283224-79.38961995-12.841107-73.99460972-98.085118C5.678333 64.6891236 12.449999 39.0533414 40.9440696 29.6744833c28.4937858-9.3788582 97.7576534-53.759344 152.1092214-11.5608408 14.108515 10.9539787 28.485244 21.5530673 42.219059 33.0183835 18.870862 15.7544588 38.275587 33.94997 47.55029 57.789121 4.358603 11.203585 6.003187 23.290846 4.789395 35.310678-1.420219 14.067252-3.419288 27.751518-7.05981 41.459444-1.239417 4.665622-2.478265 9.331836-3.717682 13.997457-.744277 2.802153-1.493394 5.618206-2.663623 8.258589-7.538436 17.007812-17.044053 28.166148-32.974822 37.222056-13.82208 7.856972-30.953828 7.65084-46.223746 6.786091-60.723477-3.438885-91.688979 2.164829-120.6941348-3.936914" fill="#F5F5F5"/><path d="M10.1991842 220.5903c-4.20947755-.681372-5.75648151-1.501081-3.73137479-2.484603C20.55073 211.266188 83.7050009 211.172028 114.339901 211.03369c38.533221-.173487 78.628347-.543034 113.322153.940634 14.518802.62107 48.031322-.120925 53.047055 3.363645 15.517539 10.780692-90.247796 8.104867-107.241555 8.267713-28.329142.271194-139.2260098.877753-163.2683698-3.015382" fill="#E4E4E4"/><path d="M256.580845 203.607582V68.6951161c0-2.4423595-1.923898-4.4406829-4.275294-4.4406829H38.4092033c-2.3513963 0-4.2752943 1.9983234-4.2752943 4.4406829V203.607582h222.446936z" fill="#FFF"/><path d="M53.6803335 64.0403156c-5.0300137 0-10.0969717-.1996066-15.1229494 0-2.7903816.1109284-5.0728566 2.159879-5.180585 5.1281809-.0229737.6300991 0 1.2660026 0 1.8964241V196.79387c0 2.24372-.248365 4.662862 0 6.896263.0111765.099642 0 .207346 0 .308601 0 .396311.3682013.467898.6820726.467898H247.466872c2.876999 0 5.794357.1464 8.668872 0 .122941-.005804.246813 0 .369754 0 .274754 0 .832333-.253458.832333-.604947V72.9858521c0-1.7532491.328152-4.1304703-.307352-5.8069724-1.193704-3.1479156-4.166634-3.1385641-6.883748-3.1385641H238.091401c-.832023 0-1.171663 1.0731677-.150261 1.0731677h7.144532c2.386788 0 4.869818-.2079907 7.249466.0099965 3.854626.353423 3.488287 4.3087941 3.488287 7.1487545V201.37676c0 .674277-.184721 1.67876 0 2.330786.022974.081262 0 .204122 0 .291188.277548-.201542.555096-.403406.832644-.60527H37.5524369c-.9437872 0-2.0396981-.16091-2.9735508 0-.1164211.019993-.2505383 0-.3697535 0 .227254.156074.4548185.312148.6820726.468221V73.7323615c0-1.5878239-.0645749-3.1920935 0-4.7792724.0891009-2.1947054 1.4665957-3.7489928 3.6065713-3.8396058 1.0186073-.0432105 2.0474596 0 3.0669982 0H53.5300726c.832023 0 1.1716622-1.0731677.1502609-1.0731677" fill="#BBC3C8"/><path d="M267.749078 218.150713H22.9499056c-6.6999583 0-12.1509508-5.661862-12.1509508-12.621006v-.757474c0-.408564.3191491-.74006.7128078-.74006H279.203364c.393349 0 .712187.331496.712187.74006v.741028c0 6.968496-5.457822 12.637452-12.166473 12.637452" fill="#FFF"/><path d="M260.516966 217.61787H24.9613212c-1.4759095 0-2.9064923.02483-4.3631535-.361162-4.5025483-1.193448-7.9408523-5.263294-8.6701142-9.997744-.0568135-.367611.0667481-2.435265-.1546073-2.639709-.0192483-.017735-.7469579.010642-.6212231-.054496 3.413157-.154139 6.627001 0 9.7998649 0h254.84585c.677726 0 2.227834-.316017 2.852783 0 .95217.482087.017075 3.917965-.240293 4.789591-1.397054 4.727033-5.519151 8.175487-10.320359 8.26352-.677726.012254-.105038.795111 1.20012.770926 4.103302-.075457 6.150724-1.552906 8.777185-4.885273 1.335272-1.694238 2.25919-3.754152 2.631428-5.909516.213594-1.234079.778314-3.778983-.890079-4.077586-.64668-.116088-1.378736-.017091-2.028832-.017091H15.2915375c-1.0468588 0-2.1042731-.04579-3.1498901 0-.8074969.035149-1.8360388.193802-2.21665825 1.038986-.25736831.571733-.10959109 1.571378-.06985268 2.162781.07761409 1.161846.31511323 2.315308.69883723 3.409759.7112555 2.027023 1.9297966 3.877656 3.4923234 5.298443 4.0222724 3.658057 8.8703586 3.274 13.7578728 3.274H267.945953c.682073 0-.107239-1.065429-1.41395-1.065429h-6.015037z" fill="#BBC3C8"/><path d="M113.675711 204.244646c.897219 4.317501 4.838152 3.99697 8.101358 3.99697h45.821494c3.622404 0 8.43603.529812 9.440667-4.302668.053709-.26023-.277238-.346006-.458544-.346006H114.716982c-.565962 0-1.5914.886137-.582727.886137h61.863704c-.152744-.11512-.305489-.230241-.458234-.345684-.465374 2.239529-2.046838 3.222083-4.060768 3.222083H124.223776c-3.284007 0-8.122469.929348-9.048561-3.528103-.111454-.536584-1.616546-.146077-1.499504.417271" fill="#BBC3C8"/><path fill="#FFF" d="M44.4782522 197.538315H246.236688V75.2981286H44.4782522z"/><path d="M235.386426 197.607001H55.3751457V52.6513233c0-4.3971499 3.4317844-7.9613695 7.6648566-7.9613695H229.633049c3.17721 0 5.753377 2.6755026 5.753377 5.9759448V197.607001z" fill="#EFEFEF"/><path d="M235.339454 58.0443135H55.3284841V47.3855138c0-1.4888267 1.1620381-2.6958179 2.5951045-2.6958179H232.552487c1.539243 0 2.786967 1.2959919 2.786967 2.8947796v10.459838z" fill="#FFF"/><path d="M65.6051789 53.9294183c-1.2082961-.2563607-2.0247963-1.4665765-2.0210708-2.7080716.0043464-1.4091776 1.0924959-2.7806266 2.5531929-2.3733517 1.1750773.3273033 1.7941272 1.4575475 1.8819864 2.6400313-.0832023 1.3153398-.9478232 2.752572-2.4141085 2.441392m3.9204427-2.7709525c-.2443292-4.7163915-7.4661646-4.1830323-7.4621287.3543904.0043464 4.7695984 7.2333223 4.2578445 7.4661646-.2286286.0015523-.0309568-.003415-.0577215-.007451-.0851311.000621-.0135436.0043464-.0267647.0034151-.0406307M73.9372993 53.7675403c-.8866633-.5298121-1.4339978-1.5513852-1.4308933-2.6090745.004036-1.4894717 1.2691456-3.0215089 2.7956594-2.3027316 1.0598979.4991778 1.6047488 1.5455808 1.6659087 2.7200029-.0822709 1.586534-1.3861875 3.1743578-3.0306748 2.1918032m-2.9303974-2.1918032c.0248365 4.6902717 7.2379792 3.8753995 7.4602659-.4172713-.2402932-4.6367424-7.4835501-3.933121-7.4602659.4172713M83.612547 53.8757277c-1.2172993-.1280191-2.1390442-1.3279161-2.154567-2.5668314-.0158333-1.237948.8242616-2.4043085 2.0583256-2.4481639 1.3557628-.0483699 2.3153834 1.2608431 2.3830629 2.5648967-.0670586 1.2888976-.8779706 2.5981106-2.2868215 2.4500986m3.8061948-2.5668314c.0031046-.0577215-.0037255-.1089936-.0155228-.1563962-.3980051-4.6438366-7.409972-4.3929578-7.4649228.273129-.056503 4.8205481 7.0929961 4.5429046 7.467096.0154783.010245-.042243.0158332-.0860985.0133496-.1322111" fill="#9DA5AA"/><path d="M56.1370055 184.752679V47.4874991c0-1.4588373-.0866173-3.120506 1.8748459-3.283029 1.0006008-.0828738 2.0412504 0 3.0443349 0H222.457161c3.281213 0 6.751494-.3372997 10.021841 0 1.911169.1973494 2.145564 1.7422852 2.145564 3.287866V196.521192c0 .848409 1.523409.645255 1.523409-.100609V61.318077c0-4.792816.035392-9.5875668 0-14.3803828-.016454-2.2201802-1.200535-3.8795916-3.503189-3.937958-1.016434-.0257973-2.037215 0-3.053649 0H67.1284019c-3.015152 0-6.0746993-.1573635-9.0873676 0-2.4373928.1270517-3.4277485 2.040889-3.4277485 4.2494604V197.488591c0 .848409 1.5237197.645255 1.5237197-.100609v-12.635303zM233.231859 56.524616c1.007741 0-.036324.8638871-.588315.8638871-7.384515.2640999-14.536498 0-21.635703 0H57.4427849c-1.0077413 0 .0360129-.8638871.5883148-.8638871 7.3842041-.2640998 14.5364973 0 21.6357025 0H233.231859z" fill="#9DA5AA"/><path d="M109.982243 153.849232H65.0368575c-2.6351534 0-4.7714035-2.21889-4.7714035-4.955984V68.9032358c0-2.7370936 2.1362501-4.9559839 4.7714035-4.9559839h44.9453855c2.635153 0 4.771404 2.2188903 4.771404 4.9559839v79.9900122c0 2.737094-2.136251 4.955984-4.771404 4.955984" fill="#FFF"/><path d="M110.272675 153.498099H66.7398658c-.7780036 0-1.5771183.057721-2.3368049-.138661-3.9061617-1.009964-3.4333367-5.215569-3.4333367-8.404115 0-7.419626-.1024506-68.3905791 0-75.8092379.0366338-2.6487378 1.500125-4.8105516 4.1871247-4.8476352.9947021-.0135436 1.9903356 0 2.9850377 0h38.4341844c.928265 0 1.859013-.0203154 2.787277 0 2.85061.0625584 4.656845 2.269195 4.685718 5.1581702.073889 7.373836 0 68.2954519 0 75.6696099 0 3.103738.572792 8.189353-3.776391 8.371869m5.185242-6.308408V70.2147383c0-1.0254427.072957-2.0870016-.243398-3.0740708-.718706-2.2433978-2.751575-3.4810233-4.948674-3.5445492-7.536949-.2179871-1.174456 0-18.0406181 0-8.8449012 0-17.6935279-.0780368-26.5378081 0-2.6162156.0228951-5.3078721 1.3882173-5.9824938 4.2275327-.212973.8951663-.1440517 1.8670796-.1440517 2.7832063V147.58181c0 1.025121-.0729572 2.087325.2433978 3.074071 1.3091944 4.085325 5.4773812 3.544549 8.7287905 3.544549h41.1587494c2.496069-.104801 4.988102-1.558157 5.622364-4.227532.212663-.895811.143742-1.86708.143742-2.783207" fill="#9DA5AA"/><path d="M66.1220887 75.9410296h25.649903c.3827926 0 1.0512051-.5997872.3827926-.5997872H66.5048814c-.3827927 0-1.0515157.5997872-.3827927.5997872M65.8254166 78.8342614h24.9805591c.3281524 0 1.0695221-.511109.4057664-.511109H66.2308726c-.3278419 0-1.0692117.511109-.405456.511109M66.1220887 121.023651h42.1649383c.382793 0 1.051516-.599788.382793-.599788H66.5048814c-.3827927 0-1.0515157.599788-.3827927.599788M66.1220887 127.098367h42.1649383c.382793 0 1.051516-.599787.382793-.599787H66.5048814c-.3827927 0-1.0515157.599787-.3827927.599787M66.1220887 136.711892h42.1649383c.382793 0 1.051516-.599465.382793-.599465H66.5048814c-.3827927 0-1.0515157.599465-.3827927.599465M66.1220887 133.688158h42.1649383c.382793 0 1.051516-.599465.382793-.599465H66.5048814c-.3827927 0-1.0515157.599465-.3827927.599465M65.8254166 123.91685H92.1027519c.3278418 0 1.0692116-.510786.4057664-.510786H66.2308726c-.3278419 0-1.0692117.510786-.405456.510786M65.8254166 130.395778H92.1027519c.3278418 0 1.0692116-.511109.4057664-.511109H66.2308726c-.3278419 0-1.0692117.511109-.405456.511109M94.2664463 130.395778c7.5633377 0 6.9393197.000322 7.7800357 0 2.741951-.000968 3.052717-.171552 5.794668-.171552.327842 0 1.069211-.511109.405456-.511109-7.563027 0-6.033098.078681-7.433567.097384-2.7419502.036117-3.3988759.074168-6.1408263.074168-.3281523 0-1.0695221.511109-.4057664.511109" fill="#9DA5AA"/><path d="M108.909275 69.6798635h-.071095c-.799114 0-1.446726.6726646-1.446726 1.5023703v.0741673c0 .8297056.647612 1.5023703 1.446726 1.5023703h.071095c.798804 0 1.446416-.6726647 1.446416-1.5023703v-.0741673c0-.8297057-.647612-1.5023703-1.446416-1.5023703" fill="#65E393"/><path d="M110.012388 70.5088598c-.06178-.014511-.152434.0199929-.202417.0564316-.386518.2821579-.724295.6526717-1.029163 1.0328594l-.68021-.7065236c-.058676-.0606236-.325358.047725-.268234.1070588l.800356.831318c.053399.0554642.22415-.0067718.26513-.0593338.331257-.4288801.7007-.864532 1.135028-1.1818388.050294-.0364387.029494-.0680404-.02049-.0799716" fill="#FFF"/><path d="M98.7336647 72.7149482H67.4682274c-.7953892 0-1.440207-.6697624-1.440207-1.4955985 0-.8261586.6448178-1.4955985 1.440207-1.4955985h31.2654373c.7953891 0 1.4398963.6694399 1.4398963 1.4955985 0 .8258361-.6445072 1.4955985-1.4398963 1.4955985" fill="#3D97F6"/><path d="M96.546655 148.930655H77.3942928c-.3104564 0-.629295.022895-.9326109-.055465-1.5594222-.403082-1.3706647-2.081519-1.3706647-3.354616 0-2.961853-.0409803 2.337235 0-.624295.0145914-1.057367.5988703-1.920286 1.6714969-1.93512.3970737-.005159.7944578 0 1.1915315 0H95.071056c.3703744 0 .7419906-.008061 1.1126755 0 1.1378225.02483 1.8587021.905808 1.870189 2.058947.0294934 2.943472 0-2.374964 0 .568831 0 1.238915.2288063 3.26884-1.5072655 3.341718" fill="#E9F9ED"/><path d="M110.6881 113.481234c0 1.195489-.01906 2.459284-1.694202 2.529898H66.3713365c-.2995749 0-.633142.075563-.9257279 0-1.5045462-.389038-.9803695-1.301411-.9803695-2.529898 0-2.858221-.3043402-25.8497059-.2646298-28.7075966.013978-1.0202746.6909603-1.91087 1.7259712-1.9247288.3834432-.0056096.8027846 0 1.1859102 0 1.6872139 0 3.1841357.2197616 4.8713495.2197616 5.8148678 0 31.3641968-.0547754 35.6332198-.0547754.357711 0 1.33681-.0079194 1.694521 0 1.097912.023758 1.365401.2068926 1.376519 1.3198894.028274 2.8400722 0 26.3067168 0 29.1474498m1.130316.700861V84.5311077c0-.3953069.027956-.8041426-.093716-1.1842708-.27702-.8641977-1.060108-1.3410077-1.906415-1.3654257-2.903304-.083813-27.3750531 0-33.8716683 0-3.4071491 0-6.8155689-.0300275-10.2227179 0-1.0076902.0089093-2.0446071.5348852-2.3044717 1.6284137-.0819622.3451511-.0552769.7193397-.0552769 1.0720802v29.6513169c0 .394647-.0282737.804143.0937165 1.183941.5041627 1.573968 2.1097321 1.365426 3.3623558 1.365426h42.7769545c.961627-.040257 1.921347-.60022 2.165645-1.628414.08228-.345151.055594-.71901.055594-1.07208" fill="#9DA5AA"/><path d="M96.8869772 148.644111H77.734615c-.3104563 0-.629295.022895-.9326108-.055464-1.5594222-.403083-1.3706648-2.081842-1.3706648-3.354617 0-2.961852-.0409802 2.336913 0-.624617.0145915-1.057044.5988703-1.919964 1.671497-1.934797.3970736-.005482.7944577 0 1.1915314 0H95.4113782c.3703744 0 .7419907-.008062 1.1126756 0 1.1378224.02483 1.8587021.905807 1.870189 2.058947.0294933 2.943472 0-2.374964 0 .568508 0 1.239238.2288063 3.26884-1.5072656 3.34204m2.0698125-2.518461v-1.089291c0-.409533.0291828-.832931-.0971729-1.227307-.2868616-.895489-1.0983945-1.389507-1.9754337-1.414982-3.0086324-.086743-2.243668 0-8.9762242 0-3.53082 0-7.0628818-.031279-10.5933913 0-1.0443751.009029-2.1188645.55432-2.3880302 1.687788-.085065.357293-.0574344.74522-.0574344 1.110897v1.089613c0 .40921-.0291829.833253.0971728 1.226984.522498 1.631035 2.1862336 1.414982 3.4842515 1.414982h18.204539c.9962544-.04192 1.991267-.622037 2.2442889-1.687466.0850651-.357615.0574345-.745219.0574345-1.111218" fill="#65E393"/><path d="M167.473821 153.849232h-44.945385c-2.635154 0-4.771404-2.21889-4.771404-4.955984V68.9032358c0-2.7370936 2.13625-4.9559839 4.771404-4.9559839h44.945385c2.635154 0 4.771404 2.2188903 4.771404 4.9559839v79.9900122c0 2.737094-2.13625 4.955984-4.771404 4.955984" fill="#FFF"/><path d="M167.764253 153.498099h-43.532809c-.778004 0-1.576808.057721-2.336805-.138661-3.906162-1.009964-3.433337-5.215569-3.433337-8.404115 0-7.419626-.10214-68.3905791 0-75.8092379.036945-2.6487378 1.500126-4.8105516 4.187125-4.8476352.994702-.0135436 1.990646 0 2.985348 0h38.434185c.928265 0 1.859013-.0203154 2.786967 0 2.85061.0625584 4.656845 2.269195 4.685717 5.1581702.073889 7.373836 0 68.2954519 0 75.6696099 0 3.103738.573103 8.189353-3.776391 8.371869m5.185242-6.308408V70.2147383c0-1.0254427.072957-2.0870016-.243087-3.0740708-.718707-2.2433978-2.751575-3.4810233-4.948674-3.5445492-7.537259-.2179871-1.174767 0-18.040929 0-8.844901 0-17.693217-.0780368-26.537808 0-2.616216.0228951-5.307872 1.3882173-5.982494 4.2275327-.212662.8951663-.143741 1.8670796-.143741 2.7832063V147.58181c0 1.025121-.072957 2.087325.243087 3.074071 1.309195 4.085325 5.477692 3.544549 8.729101 3.544549h41.158439c2.49638-.104801 4.988102-1.558157 5.622365-4.227532.212973-.895811.143741-1.86708.143741-2.783207" fill="#DCDCDC"/><path d="M123.613822 75.9410296H149.263725c.382793 0 1.051205-.5997872.382482-.5997872h-25.649592c-.382793 0-1.051516.5997872-.382793.5997872M123.31715 78.8342614h24.980559c.328153 0 1.069212-.511109.405767-.511109H123.722606c-.327842 0-1.069212.511109-.405456.511109M123.613822 121.023651H165.778761c.382792 0 1.051515-.599788.382482-.599788h-42.164628c-.382793 0-1.051516.599788-.382793.599788M123.613822 127.098367H165.778761c.382792 0 1.051515-.599787.382482-.599787h-42.164628c-.382793 0-1.051516.599787-.382793.599787M123.613822 136.711892H165.778761c.382792 0 1.051515-.599465.382482-.599465h-42.164628c-.382793 0-1.051516.599465-.382793.599465M123.613822 133.688158H165.778761c.382792 0 1.051515-.599465.382482-.599465h-42.164628c-.382793 0-1.051516.599465-.382793.599465M123.31715 123.91685H149.594796c.327531 0 1.068901-.510786.405145-.510786h-26.277335c-.327842 0-1.069212.510786-.405456.510786M123.31715 130.395778H149.594796c.327531 0 1.068901-.511109.405145-.511109h-26.277335c-.327842 0-1.069212.511109-.405456.511109M151.75818 130.395778c7.563027 0 6.93963.000322 7.780036 0 2.74195-.000968 3.052717-.171552 5.794667-.171552.327842 0 1.069212-.511109.405456-.511109-7.563027 0-6.033098.078681-7.433566.097384-2.741951.036117-3.398876.074168-6.140827.074168-.327842 0-1.069522.511109-.405766.511109M166.400853 69.6798635h-.071094c-.798804 0-1.446727.6726646-1.446727 1.5023703v.0741673c0 .8297056.647923 1.5023703 1.446727 1.5023703h.071094c.798804 0 1.446416-.6726647 1.446416-1.5023703v-.0741673c0-.8297057-.647612-1.5023703-1.446416-1.5023703" fill="#EFEFEF"/><path d="M167.504122 70.5088598c-.061781-.014511-.152434.0199929-.202418.0564316-.386518.2821579-.724294.6526717-1.029473 1.0328594-.226633-.2357228-.453266-.4711232-.679899-.7065236-.058677-.0606236-.325359.047725-.268235.1070588l.800357.831318c.053709.0554642.224149-.0067718.264819-.0593338.331568-.4288801.7007-.864532 1.135339-1.1818388.050294-.0364387.029183-.0680404-.02049-.0799716" fill="#FFF"/><path d="M156.225522 72.7149482h-31.265747c-.79539 0-1.439897-.6697624-1.439897-1.4955985 0-.8261586.644507-1.4955985 1.439897-1.4955985h31.265747c.795079 0 1.439897.6694399 1.439897 1.4955985 0 .8258361-.644818 1.4955985-1.439897 1.4955985" fill="#DCDCDC"/><path d="M154.038389 148.930655h-19.152363c-.310456 0-.629605.022895-.932611-.055465-1.559422-.403082-1.370664-2.081519-1.370664-3.354616 0-2.961853-.040981 2.337235 0-.624295.014591-1.057367.59887-1.920286 1.671186-1.93512.397384-.005159.794768 0 1.191842 0h17.117011c.370374 0 .74199-.008061 1.112365 0 1.138133.02483 1.859012.905808 1.870499 2.058947.029493 2.943472 0-2.374964 0 .568831 0 1.238915.228806 3.26884-1.507265 3.341718M166.415724 116.618375h-42.697682c-.29307 0-.593592.021605-.879833-.05224-1.470321-.379865-1.29243-1.963175-1.29243-3.163716 0-2.792881-.038496-25.7450616 0-28.5379418.013971-.9967432.56472-1.8106481 1.576187-1.8245141.374411-.0051595.749442 0 1.123852 0h40.778441c.349263 0 .699458-.0077392 1.049032 0 1.073247.0232175 1.753147.8542131 1.764013 1.9415693.02763 2.7757896 0 25.7092676 0 28.4853796 0 1.168295.215456 3.082777-1.42158 3.151463-.167646.007094-.57124.279255-.218872.264422.939752-.039341 1.877951-.586566 2.116381-1.591371.080408-.3373.05433-.702654.05433-1.047693V85.2669151c0-.3859922.027631-.7855278-.091585-1.157009-.270717-.8445391-1.035992-1.3105029-1.863048-1.3343654-2.83695-.0822289-26.752023 0-33.101166 0-3.329644 0-6.66053-.0293444-9.990174 0-.984768.0087066-1.998097.5223954-2.252051 1.591371-.080097.3369773-.054019.7029765-.054019 1.0476929v28.9768184c0 .385669-.027631.785527.091585 1.157009.493004 1.538164 2.062051 1.334365 3.285869 1.334365H166.196852c.17013 0 .572482-.264422.218872-.264422" fill="#EFEFEF"/><path d="M154.378556 148.644111h-19.152052c-.310767 0-.629606.022895-.932922-.055464-1.559111-.403083-1.370354-2.081842-1.370354-3.354617 0-2.961852-.04098 2.336913 0-.624617.014281-1.057044.59856-1.919964 1.671187-1.934797.397073-.005482.794457 0 1.191531 0H152.902957c.370374 0 .742301-.008062 1.112675 0 1.137823.02483 1.858702.905807 1.870189 2.058947.029493 2.943472 0-2.374964 0 .568508 0 1.239238.229117 3.26884-1.507265 3.34204m2.069812-2.518461v-1.089291c0-.409533.029183-.832931-.097173-1.227307-.286862-.895489-1.098394-1.389507-1.975434-1.414982-3.008322-.086743-2.243357 0-8.976224 0-3.530509 0-7.062571-.031279-10.593391 0-1.044375.009029-2.118865.55432-2.38803 1.687788-.085065.357293-.057435.74522-.057435 1.110897v1.089613c0 .40921-.029183.833253.097173 1.226984.522498 1.631035 2.186544 1.414982 3.484252 1.414982h18.204539c.996564-.04192 1.991267-.622037 2.244289-1.687466.085065-.357615.057434-.745219.057434-1.111218" fill="#DCDCDC"/><path d="M225.363001 153.849232h-44.945385c-2.635464 0-4.771714-2.21889-4.771714-4.955984V68.9032358c0-2.7370936 2.13625-4.9559839 4.771714-4.9559839h44.945385c2.634843 0 4.771093 2.2188903 4.771093 4.9559839v79.9900122c0 2.737094-2.13625 4.955984-4.771093 4.955984" fill="#FFF"/><path d="M225.653433 153.498099h-43.532809c-.778314 0-1.577118.057721-2.336805-.138661-3.906162-1.009964-3.433337-5.215569-3.433337-8.404115 0-7.419626-.10245-68.3905791 0-75.8092379.036634-2.6487378 1.499815-4.8105516 4.187125-4.8476352.994702-.0135436 1.990336 0 2.985348 0h38.434185c.927954 0 1.858702-.0203154 2.786656 0 2.85092.0625584 4.657155 2.269195 4.686028 5.1581702.073578 7.373836 0 68.2954519 0 75.6696099 0 3.103738.572792 8.189353-3.776391 8.371869m5.185242-6.308408V70.2147383c0-1.0254427.072957-2.0870016-.243398-3.0740708-.718706-2.2433978-2.751575-3.4810233-4.948674-3.5445492-7.536949-.2179871-1.174767 0-18.040929 0-8.84459 0-17.693217-.0780368-26.537497 0-2.616216.0228951-5.307872 1.3882173-5.982804 4.2275327-.212663.8951663-.143742 1.8670796-.143742 2.7832063V147.58181c0 1.025121-.072957 2.087325.243398 3.074071 1.309194 4.085325 5.477381 3.544549 8.728791 3.544549h41.158749c2.496069-.104801 4.987792-1.558157 5.622054-4.227532.213284-.895811.144052-1.86708.144052-2.783207" fill="#DCDCDC"/><path d="M181.502847 75.9410296H207.152439c.383103 0 1.051516-.5997872.383103-.5997872h-25.650213c-.382482 0-1.050895.5997872-.382482.5997872M181.20605 78.8342614H206.18692c.327842 0 1.069212-.511109.405456-.511109h-24.980559c-.327842 0-1.069522.511109-.405767.511109M181.502847 121.023651H223.667785c.382793 0 1.051205-.599788.382793-.599788h-42.165249c-.382482 0-1.050895.599788-.382482.599788M181.502847 127.098367H223.667785c.382793 0 1.051205-.599787.382793-.599787h-42.165249c-.382482 0-1.050895.599787-.382482.599787M181.502847 136.711892H223.667785c.382793 0 1.051205-.599465.382793-.599465h-42.165249c-.382482 0-1.050895.599465-.382482.599465M181.502847 133.688158H223.667785c.382793 0 1.051205-.599465.382793-.599465h-42.165249c-.382482 0-1.050895.599465-.382482.599465M181.20605 123.91685H207.483696c.327532 0 1.069212-.510786.405456-.510786h-26.277335c-.327842 0-1.069522.510786-.405767.510786M181.20605 130.395778H207.483696c.327532 0 1.069212-.511109.405456-.511109h-26.277335c-.327842 0-1.069522.511109-.405767.511109M209.64736 130.395778c7.563026 0 6.93932.000322 7.779725 0 2.742261-.000968 3.052717-.171552 5.794978-.171552.327532 0 1.069212-.511109.405146-.511109-7.563027 0-6.032788.078681-7.433567.097384-2.74195.036117-3.398566.074168-6.140826.074168-.327842 0-1.069523.511109-.405456.511109M224.290033 69.6798635h-.071095c-.799114 0-1.446726.6726646-1.446726 1.5023703v.0741673c0 .8297056.647612 1.5023703 1.446726 1.5023703h.071095c.798804 0 1.446416-.6726647 1.446416-1.5023703v-.0741673c0-.8297057-.647612-1.5023703-1.446416-1.5023703" fill="#EFEFEF"/><path d="M225.393022 70.5088598c-.061781-.014511-.152123.0199929-.202417.0564316-.386518.2821579-.724295.6526717-1.029163 1.0328594-.226633-.2357228-.453577-.4711232-.68021-.7065236-.058676-.0606236-.325358.047725-.268234.1070588l.800356.831318c.053709.0554642.22415-.0067718.26513-.0593338.331257-.4288801.7007-.864532 1.135028-1.1818388.050605-.0364387.029494-.0680404-.02049-.0799716" fill="#FFF"/><path d="M214.114423 72.7149482h-31.265748c-.795389 0-1.439897-.6697624-1.439897-1.4955985 0-.8261586.644508-1.4955985 1.439897-1.4955985h31.265748c.795389 0 1.439896.6694399 1.439896 1.4955985 0 .8258361-.644507 1.4955985-1.439896 1.4955985" fill="#DCDCDC"/><path d="M211.927289 148.930655h-19.152052c-.310456 0-.629605.022895-.932921-.055465-1.559422-.403082-1.370355-2.081519-1.370355-3.354616 0-2.961853-.04098 2.337235 0-.624295.014281-1.057367.59856-1.920286 1.671187-1.93512.397074-.005159.794458 0 1.191531 0H210.45169c.370374 0 .742301-.008061 1.112675 0 1.137823.02483 1.858702.905808 1.870189 2.058947.029494 2.943472 0-2.374964 0 .568831 0 1.238915.229117 3.26884-1.507265 3.341718M224.304593 116.618375h-42.697681c-.293071 0-.593593.021605-.879523-.05224-1.470632-.379865-1.29243-1.963175-1.29243-3.163716 0-2.792881-.038496-25.7450616 0-28.5379418.01366-.9967432.56441-1.8106481 1.576187-1.8245141.37441-.0051595.749131 0 1.123541 0h40.778441c.349574 0 .699769-.0077392 1.049032 0 1.073248.0232175 1.753147.8542131 1.764013 1.9415693.027941 2.7757896 0 25.7092676 0 28.4853796 0 1.168295.215457 3.082777-1.42158 3.151463-.167336.007094-.571239.279255-.218561.264422.939441-.039341 1.87764-.586566 2.116381-1.591371.080098-.3373.054019-.702654.054019-1.047693V85.2669151c0-.3859922.027631-.7855278-.091584-1.157009-.270408-.8445391-1.035683-1.3105029-1.862738-1.3343654-2.837261-.0822289-26.752334 0-33.101476 0-3.329334 0-6.660531-.0293444-9.990175 0-.984457.0087066-1.997787.5223954-2.25174 1.591371-.080098.3369773-.054019.7029765-.054019 1.0476929v28.9768184c0 .385669-.027631.785527.091584 1.157009.492695 1.538164 2.061741 1.334365 3.28587 1.334365h41.803878c.16982 0 .572171-.264422.218561-.264422" fill="#EFEFEF"/><path d="M212.267735 148.644111h-19.152362c-.310456 0-.629605.022895-.932611-.055464-1.559422-.403083-1.370665-2.081842-1.370665-3.354617 0-2.961852-.040669 2.336913 0-.624617.014592-1.057044.59856-1.919964 1.671187-1.934797.397384-.005482.794768 0 1.191842 0h17.11701c.370375 0 .741991-.008062 1.112365 0 1.138133.02483 1.859013.905807 1.8705 2.058947.029493 2.943472 0-2.374964 0 .568508 0 1.239238.228806 3.26884-1.507266 3.34204m2.069813-2.518461v-1.089291c0-.409533.029183-.832931-.097173-1.227307-.286862-.895489-1.098705-1.389507-1.975434-1.414982-3.008632-.086743-2.243668 0-8.976535 0-3.530509 0-7.062571-.031279-10.59308 0-1.044376.009029-2.118865.55432-2.388031 1.687788-.085065.357293-.057744.74522-.057744 1.110897v1.089613c0 .40921-.029183.833253.097483 1.226984.522498 1.631035 2.186544 1.414982 3.484251 1.414982H212.035824c.996255-.04192 1.990957-.622037 2.243979-1.687466.085375-.357615.057745-.745219.057745-1.111218" fill="#DCDCDC"/><path d="M114.753522 196.868876v-30.911938c0-2.737417-2.13625-4.955984-4.771403-4.955984H65.0367333c-2.6351534 0-4.7714035 2.218567-4.7714035 4.955984v30.911938h54.4881922z" fill="#FFF"/><path d="M59.5609664 196.868876h1.3656975c-.0071405-14.441974-.0009314-27.486057.0431534-30.669444.0366339-2.648415 1.5001251-4.810229 4.1868142-4.847635.9950126-.013544 1.9906461 0 2.9853482 0h38.4341843c.928265 0 1.859013-.019993 2.787277 0 2.850611.062558 4.656846 2.269195 4.685718 5.15817.031356 3.145659.036013 16.037215.031046 30.358909h1.377805v-29.600468c0-1.025443.072957-2.087324-.243398-3.074071-.719017-2.243398-2.751574-3.481023-4.948674-3.544549-7.536949-.217987-1.174456 0-18.0409284 0-8.8445908 0-17.6932174-.078359-26.5378082 0-2.6162156.022895-5.3075616 1.387895-5.9824937 4.22721-.2126626.895489-.1437413 1.867402-.1437413 2.783529v29.208349z" fill="#DCDCDC"/><path d="M66.1220887 172.994409h25.649903c.3827926 0 1.0512051-.599465.3827926-.599465H66.5048814c-.3827927 0-1.0515157.599465-.3827927.599465M65.8254166 175.88777h24.9805591c.3281524 0 1.0695221-.511109.4057664-.511109H66.2308726c-.3278419 0-1.0692117.511109-.405456.511109M108.909275 166.733372h-.071095c-.799114 0-1.446726.672664-1.446726 1.50237v.074167c0 .829706.647612 1.502371 1.446726 1.502371h.071095c.798804 0 1.446416-.672665 1.446416-1.502371v-.074167c0-.829706-.647612-1.50237-1.446416-1.50237" fill="#EFEFEF"/><path d="M110.012388 167.562529c-.06178-.014833-.152434.019671-.202417.056432-.386518.282158-.724295.652349-1.029163 1.032537-.226944-.235401-.453577-.470801-.68021-.706201-.058676-.060946-.325358.047725-.268234.106736.266682.276999.533364.553997.800356.831641.053399.055464.22415-.006772.26513-.059657.331257-.428557.7007-.864532 1.135028-1.181516.050294-.036439.029494-.068363-.02049-.079972" fill="#FFF"/><path d="M98.7336647 169.768456H67.4682274c-.7953892 0-1.440207-.66944-1.440207-1.495598 0-.825836.6448178-1.495599 1.440207-1.495599h31.2654373c.7953891 0 1.4398963.669763 1.4398963 1.495599 0 .826158-.6445072 1.495598-1.4398963 1.495598" fill="#DCDCDC"/><path d="M63.5238485 196.868876h.5162889c-.0052778-6.657316-.0058987-13.504887.0139705-14.950504.0136601-.997065.5647201-1.811293 1.5761869-1.824836.3744103-.00516.7494416 0 1.1238519 0h40.7781303c.349574 0 .699768-.007739 1.049342 0 1.072937.02354 1.753147.854213 1.764013 1.941569.014281 1.430783.01366 8.214183.009935 14.833771h.520325v-14.548388c0-.385992.02763-.785528-.091585-1.157009-.270718-.844539-1.035682-1.310825-1.862738-1.334688-2.837571-.081906-26.7523335 0-33.1014762 0-3.3296442 0-6.6605303-.029344-9.9901746 0-.9847675.009029-1.998097.522718-2.2520503 1.591693-.0800977.336978-.0540194.702654-.0540194 1.047693v14.400699z" fill="#EFEFEF"/><path d="M172.634537 196.868876v-30.911938c0-2.737417-2.13625-4.955984-4.771403-4.955984h-44.945696c-2.634843 0-4.771093 2.218567-4.771093 4.955984v30.911938h54.488192z" fill="#FFF"/><path d="M117.441826 196.868876h1.365697c-.00714-14.441974-.000931-27.486057.043154-30.669444.036634-2.648415 1.500125-4.810229 4.187125-4.847635.994702-.013544 1.990335 0 2.985037 0h38.434185c.928575 0 1.859013-.019993 2.787277 0 2.85061.062558 4.656845 2.269195 4.685718 5.15817.031356 3.145659.036012 16.037215.031045 30.358909h1.377805v-29.600468c0-1.025443.072958-2.087324-.243087-3.074071-.719327-2.243398-2.752195-3.481023-4.948984-3.544549-7.536949-.217987-1.174457 0-18.040618 0-8.844902 0-17.693528-.078359-26.538119 0-2.615905.022895-5.307562 1.387895-5.982494 4.22721-.212662.895489-.143741 1.867402-.143741 2.783529v29.208349z" fill="#DCDCDC"/><path d="M124.003103 172.994409H149.653006c.382483 0 1.050895-.599465.382483-.599465h-25.649903c-.382483 0-1.051206.599465-.382483.599465M123.706276 175.88777h24.980559c.327842 0 1.069522-.511109.405767-.511109H124.111732c-.327842 0-1.069212.511109-.405456.511109M166.790134 166.733372h-.071094c-.799115 0-1.446727.672664-1.446727 1.50237v.074167c0 .829706.647612 1.502371 1.446727 1.502371h.071094c.798805 0 1.446416-.672665 1.446416-1.502371v-.074167c0-.829706-.647611-1.50237-1.446416-1.50237" fill="#EFEFEF"/><path d="M167.893093 167.562529c-.061471-.014833-.152124.019671-.202107.056432-.386829.282158-.724295.652349-1.029474 1.032537-.226633-.235401-.453576-.470801-.68021-.706201-.058365-.060946-.325047.047725-.268234.106736.266682.276999.533364.553997.800357.831641.053709.055464.22446-.006772.265129-.059657.331568-.428557.7007-.864532 1.135029-1.181516.050604-.036439.029493-.068363-.02049-.079972" fill="#FFF"/><path d="M156.614493 169.768456h-31.265437c-.795389 0-1.439897-.66944-1.439897-1.495598 0-.825836.644508-1.495599 1.439897-1.495599h31.265437c.795389 0 1.439897.669763 1.439897 1.495599 0 .826158-.644508 1.495598-1.439897 1.495598" fill="#DCDCDC"/><path d="M121.404708 196.868876h.516289c-.005278-6.657316-.005899-13.504887.01397-14.950504.013661-.997065.564721-1.811293 1.576187-1.824836.374411-.00516.749442 0 1.123852 0h40.778441c.349263 0 .699768-.007739 1.049032 0 1.073247.02354 1.752836.854213 1.763702 1.941569.014592 1.430783.013971 8.214183.010556 14.833771h.520014v-14.548388c0-.385992.02732-.785528-.091584-1.157009-.270718-.844539-1.035683-1.310825-1.862739-1.334688-2.83726-.081906-26.752333 0-33.101476 0-3.329644 0-6.66053-.029344-9.990174 0-.984768.009029-1.997787.522718-2.252051 1.591693-.079787.336978-.054019.702654-.054019 1.047693v14.400699z" fill="#EFEFEF"/><path d="M229.826432 196.868876v-30.911938c0-2.737417-2.13625-4.955984-4.771404-4.955984h-44.945696c-2.635153 0-4.771093 2.218567-4.771093 4.955984v30.911938h54.488193z" fill="#FFF"/><path d="M174.633721 196.868876h1.365697c-.00683-14.441974-.000931-27.486057.043154-30.669444.036633-2.648415 1.500125-4.810229 4.186814-4.847635.995012-.013544 1.990956 0 2.985658 0h38.433875c.928575 0 1.859012-.019993 2.787277 0 2.85061.062558 4.656845 2.269195 4.685717 5.15817.031356 3.145659.036013 16.037215.031046 30.358909h1.377805v-29.600468c0-1.025443.072957-2.087324-.243087-3.074071-.719327-2.243398-2.751885-3.481023-4.948985-3.544549-7.536948-.217987-1.174456 0-18.040618 0-8.844901 0-17.693217-.078359-26.538118 0-2.615905.022895-5.307562 1.387895-5.982494 4.22721-.212663.895489-.143741 1.867402-.143741 2.783529v29.208349z" fill="#DCDCDC"/><path d="M181.194812 172.994409H206.844715c.382793 0 1.051205-.599465.382793-.599465h-25.649903c-.382793 0-1.051206.599465-.382793.599465M180.898326 175.88777h24.980559c.327842 0 1.069212-.511109.405767-.511109H181.303782c-.327842 0-1.069522.511109-.405456.511109M223.982029 166.733372h-.071094c-.799115 0-1.446727.672664-1.446727 1.50237v.074167c0 .829706.647612 1.502371 1.446727 1.502371h.071094c.798804 0 1.446416-.672665 1.446416-1.502371v-.074167c0-.829706-.647612-1.50237-1.446416-1.50237" fill="#EFEFEF"/><path d="M225.085298 167.562529c-.061781-.014833-.152434.019671-.202418.056432-.386518.282158-.724294.652349-1.029473 1.032537-.226633-.235401-.453577-.470801-.679899-.706201-.058677-.060946-.325359.047725-.268235.106736.266682.276999.533364.553997.800357.831641.053398.055464.224149-.006772.264819-.059657.331568-.428557.7007-.864532 1.135339-1.181516.050294-.036439.029183-.068363-.02049-.079972" fill="#FFF"/><path d="M213.806388 169.768456h-31.265437c-.79539 0-1.440207-.66944-1.440207-1.495598 0-.825836.644817-1.495599 1.440207-1.495599h31.265437c.795389 0 1.440207.669763 1.440207 1.495599 0 .826158-.644818 1.495598-1.440207 1.495598" fill="#DCDCDC"/><path d="M178.596572 196.868876h.516289c-.005278-6.657316-.005899-13.504887.01397-14.950504.013971-.997065.56472-1.811293 1.576187-1.824836.37441-.00516.749442 0 1.123852 0h40.778441c.349263 0 .699768-.007739 1.049032 0 1.073247.02354 1.752836.854213 1.763702 1.941569.014591 1.430783.013971 8.214183.010556 14.833771h.520014v-14.548388c0-.385992.02732-.785528-.091585-1.157009-.270718-.844539-1.035682-1.310825-1.862738-1.334688-2.83726-.081906-26.752333 0-33.101786 0-3.329334 0-6.66022-.029344-9.989554 0-.985078.009029-1.998408.522718-2.25205 1.591693-.080409.336978-.05433.702654-.05433 1.047693v14.400699z" fill="#EFEFEF"/><path d="M54.0497765 74.8473531h-9.2823342c-.2412245 0-1.0397183.147367-1.0397183.5456129V192.607516c0 1.48657-.2924498 3.34333 0 4.807327.0133497.066751 0 .149625 0 .21831 0 .262487.2306691.356003.4610277.356003H221.055109c8.173384 0 16.389922.255393 24.560512 0 .110522-.003225.221355 0 .331877 0 .240915 0 1.039408-.147045 1.039408-.545613V80.2293149c0-1.4865694.292761-3.3433301 0-4.8076494-.013349-.0664281 0-.1493019 0-.2183097 0-.2624875-.230358-.3560027-.461027-.3560027h-8.53072c-.575586 0-1.587984.9016156-.57869.9016156h8.531029c-.153676-.1186676-.307351-.2373351-.461338-.3560027V195.777037c0 .43404-.151813 1.227307 0 1.637806.02049.055464 0 .156719 0 .21831.34678-.181549.693249-.363742 1.039719-.545291H47.8214014c-.8180525 0-1.923898-.206056-2.7223917 0-.0977937.025153-.2294272 0-.3315674 0 .1536759.118668.3073518.237013.4610277.355681V77.0594716c0-.4340396.1518131-1.2269841 0-1.6378061-.0204901-.0554642 0-.1567186 0-.2183097-.3464693.181871-.6929386.363742-1.0397183.5456129h9.2826446c.5752756 0 1.5873633-.9016156.5783802-.9016156" fill="#BBC3C8"/></g></svg>